grf
version=1
nRows=12
nColumns=37
inDegrees=no
endheader
time	ground_force_1_vx	ground_force_1_vy	ground_force_1_vz	ground_force_1_px	ground_force_1_py	ground_force_1_pz	ground_moment_1_mx	ground_moment_1_my	ground_moment_1_mz	ground_force_2_vx	ground_force_2_vy	ground_force_2_vz	ground_force_2_px	ground_force_2_py	ground_force_2_pz	ground_moment_2_mx	ground_moment_2_my	ground_moment_2_mz	ground_force_3_vx	ground_force_3_vy	ground_force_3_vz	ground_force_3_px	ground_force_3_py	ground_force_3_pz	ground_moment_3_mx	ground_moment_3_my	ground_moment_3_mz	ground_force_4_vx	ground_force_4_vy	ground_force_4_vz	ground_force_4_px	ground_force_4_py	ground_force_4_pz	ground_moment_4_mx	ground_moment_4_my	ground_moment_4_mz
      0.00000000	      0.00000000	     -0.00000000	      0.00000000	      0.00000000	      0.00000000	      0.00000000	      0.00000000	      0.00000000	      0.00000000	     -0.44086879	     14.96872807	   -260.95895386	   -340.38056096	   -960.11764669	      0.00000000	      0.00000000	      0.00000000	   1225.42291889	     -0.34512765	    -15.19616698	   -386.84088135	   -346.28674763	   -726.97741341	      0.00000000	      0.00000000	     -0.00000000	  -1534.72815693	      0.00000000	     -0.00000000	      0.00000000	      0.00000000	      0.00000000	      0.00000000	      0.00000000	      0.00000000	      0.00000000
      0.01000000	      0.00000000	     -0.00000000	      0.00000000	      0.00000000	      0.00000000	      0.00000000	      0.00000000	      0.00000000	      0.00000000	     -0.36750680	     14.82761192	   -261.22647095	   -340.16505954	   -962.23499250	      0.00000000	      0.00000000	      0.00000000	   1166.62081898	     -0.08370559	    -15.43635940	   -385.40426636	   -346.13012977	   -727.84197775	      0.00000000	      0.00000000	     -0.00000000	  -1724.35033783	      0.00000000	     -0.00000000	      0.00000000	      0.00000000	      0.00000000	      0.00000000	      0.00000000	      0.00000000	      0.00000000
      0.02000000	      0.00000000	     -0.00000000	      0.00000000	      0.00000000	      0.00000000	      0.00000000	      0.00000000	      0.00000000	      0.00000000	     -0.58067787	     15.38127232	   -258.98928833	   -342.60593755	   -956.45722867	      0.00000000	      0.00000000	      0.00000000	   1116.81989595	     -0.07326999	    -15.53436756	   -383.40899658	   -346.97786763	   -728.61926292	      0.00000000	      0.00000000	     -0.00000000	  -1662.60422564	      0.00000000	     -0.00000000	      0.00000000	      0.00000000	      0.00000000	      0.00000000	      0.00000000	      0.00000000	      0.00000000
      0.03000000	      0.00000000	     -0.00000000	      0.00000000	      0.00000000	      0.00000000	      0.00000000	      0.00000000	      0.00000000	      0.00000000	     -0.18403043	     14.48396015	   -261.99288940	   -340.64144472	   -960.18091882	      0.00000000	      0.00000000	      0.00000000	   1261.42348430	      0.27669438	    -15.11878301	   -382.62860107	   -346.75667766	   -728.96372336	      0.00000000	      0.00000000	     -0.00000000	  -1628.92446151	      0.00000000	     -0.00000000	      0.00000000	      0.00000000	      0.00000000	      0.00000000	      0.00000000	      0.00000000	      0.00000000
      0.04000000	      0.00000000	     -0.00000000	      0.00000000	      0.00000000	      0.00000000	      0.00000000	      0.00000000	      0.00000000	      0.00000000	     -0.01150401	     14.89627075	   -260.64678955	   -341.56179426	   -956.82851825	      0.00000000	      0.00000000	      0.00000000	   1445.45563852	      0.01626873	    -15.44009686	   -383.41116333	   -347.79342833	   -728.07702366	      0.00000000	      0.00000000	     -0.00000000	  -1559.99262971	      0.00000000	     -0.00000000	      0.00000000	      0.00000000	      0.00000000	      0.00000000	      0.00000000	      0.00000000	      0.00000000
      0.05000000	      0.00000000	     -0.00000000	      0.00000000	      0.00000000	      0.00000000	      0.00000000	      0.00000000	      0.00000000	      0.00000000	     -0.45784119	     15.24718761	   -261.68301392	   -340.72566158	   -957.04047591	      0.00000000	      0.00000000	      0.00000000	   1186.06119213	      0.44355326	    -15.09746840	   -381.68844604	   -347.26161313	   -728.12248690	      0.00000000	      0.00000000	     -0.00000000	  -1787.80074547	      0.00000000	     -0.00000000	      0.00000000	      0.00000000	      0.00000000	      0.00000000	      0.00000000	      0.00000000	      0.00000000
      0.06000000	      0.00000000	     -0.00000000	      0.00000000	      0.00000000	      0.00000000	      0.00000000	      0.00000000	      0.00000000	      0.00000000	     -0.36288556	     15.51472759	   -264.46002197	   -340.90719015	   -961.20023988	      0.00000000	      0.00000000	      0.00000000	   1155.17104462	      0.36055551	    -14.86648275	   -381.66772461	   -347.38032743	   -728.91439948	      0.00000000	      0.00000000	     -0.00000000	  -1781.64484711	      0.00000000	     -0.00000000	      0.00000000	      0.00000000	      0.00000000	      0.00000000	      0.00000000	      0.00000000	      0.00000000
      0.07000000	      0.00000000	     -0.00000000	      0.00000000	      0.00000000	      0.00000000	      0.00000000	      0.00000000	      0.00000000	      0.00000000	     -0.36302081	     15.18303394	   -263.87435913	   -341.41542508	   -958.88441006	      0.00000000	      0.00000000	      0.00000000	   1238.03886775	      0.58588994	    -14.86133101	   -383.32244873	   -347.28347427	   -727.02352288	      0.00000000	     -0.00000000	     -0.00000000	  -1791.85472307	      0.00000000	     -0.00000000	      0.00000000	      0.00000000	      0.00000000	      0.00000000	      0.00000000	      0.00000000	      0.00000000
      0.08000000	      0.00000000	     -0.00000000	      0.00000000	      0.00000000	      0.00000000	      0.00000000	      0.00000000	      0.00000000	      0.00000000	     -0.03792650	     15.25392914	   -264.48175049	   -340.40314137	   -960.50383463	      0.00000000	      0.00000000	      0.00000000	   1328.13371155	      0.08272112	    -15.17940426	   -382.59945679	   -346.60489260	   -727.31620782	      0.00000000	      0.00000000	     -0.00000000	  -1592.42574353	      0.00000000	     -0.00000000	      0.00000000	      0.00000000	      0.00000000	      0.00000000	      0.00000000	      0.00000000	      0.00000000
      0.09000000	      0.00000000	     -0.00000000	      0.00000000	      0.00000000	      0.00000000	      0.00000000	      0.00000000	      0.00000000	      0.00000000	     -0.11509174	     15.48929596	   -264.07614136	   -340.86546657	   -959.57622670	      0.00000000	      0.00000000	      0.00000000	   1390.06877593	     -0.16514744	    -14.69806289	   -381.92355347	   -346.83489203	   -727.88639279	      0.00000000	     -0.00000000	     -0.00000000	  -1623.20169291	      0.00000000	     -0.00000000	      0.00000000	      0.00000000	      0.00000000	      0.00000000	      0.00000000	      0.00000000	      0.00000000
      0.10000000	      0.00000000	     -0.00000000	      0.00000000	      0.00000000	      0.00000000	      0.00000000	      0.00000000	      0.00000000	      0.00000000	     -0.10243522	     15.50868988	   -264.40090942	   -340.87676747	   -959.18110020	      0.00000000	      0.00000000	      0.00000000	   1330.97745218	      0.26613172	    -14.60433389	   -380.89971924	   -347.06238585	   -728.43306777	      0.00000000	      0.00000000	     -0.00000000	  -1633.59014290	      0.00000000	     -0.00000000	      0.00000000	      0.00000000	      0.00000000	      0.00000000	      0.00000000	      0.00000000	      0.00000000
      0.11000000	      0.00000000	     -0.00000000	      0.00000000	      0.00000000	      0.00000000	      0.00000000	      0.00000000	      0.00000000	      0.00000000	     -0.41231290	     14.99413300	   -264.28546143	   -340.70786940	   -959.77444410	      0.00000000	      0.00000000	      0.00000000	   1185.76742275	     -0.00641411	    -15.19771481	   -381.22308350	   -346.90942029	   -727.73952458	      0.00000000	      0.00000000	     -0.00000000	  -1719.28749367	      0.00000000	     -0.00000000	      0.00000000	      0.00000000	      0.00000000	      0.00000000	      0.00000000	      0.00000000	      0.00000000
